<svg id="Camada_1" data-name="Camada 1" xmlns="http://www.w3.org/2000/svg" viewBox="0 0 486.55 421.71"><defs><style>.cls-1{fill:#f6f6f6;stroke:#fff;}.cls-1,.cls-3,.cls-4,.cls-5,.cls-7,.cls-8{stroke-miterlimit:10;}.cls-2{fill:#dadada;}.cls-3,.cls-7,.cls-8{fill:#ca9e67;}.cls-3,.cls-4,.cls-7,.cls-8{stroke:#ca9e67;}.cls-3,.cls-4{stroke-width:6px;}.cls-4,.cls-5,.cls-6{fill:#fff;}.cls-5{stroke:#1d1d1b;}.cls-7{stroke-width:7px;}</style></defs><title>logo</title><rect class="cls-1" x="0.5" y="0.5" width="485.55" height="420.71"/><polygon class="cls-2" points="202.12 387.71 130.17 388.16 229.33 362 267.05 369.71 202.12 387.71"/><polygon class="cls-3" points="339.1 380.21 416.52 342.11 416.73 265.4 339.23 227.18 339.1 380.21"/><polygon class="cls-4" points="126.87 383.63 49.99 345.36 49.78 264.28 126.73 223.88 126.87 383.63"/><polygon class="cls-4" points="333.27 381.55 232.44 359.8 232.7 246.99 333.29 226.07 333.27 381.55"/><polygon class="cls-4" points="230.63 245.87 153.49 229.16 153.54 143 229.39 108.55 230.63 245.87"/><polygon class="cls-5" points="234.73 244.87 311.88 228.16 311.82 142 234.33 107.76 234.73 244.87"/><polygon class="cls-3" points="235.73 245.63 312.88 228.93 312.82 142.77 235.32 108.53 235.73 245.63"/><polygon class="cls-3" points="132.55 384.55 226.57 359.88 227.69 246.93 132.68 222.81 132.55 384.55"/><path class="cls-6" d="M461.42,589.75c1.77,4.8,5.84,6.65,9,4.16s4.22-8.11,2.51-12.74-5.61-6.57-8.79-4.32S459.65,585,461.42,589.75Z" transform="translate(-260.45 -238.31)"/><path class="cls-6" d="M441.47,593.25c1.77,4.8,5.84,6.65,9,4.16s4.22-8.11,2.52-12.74-5.62-6.57-8.8-4.32S439.7,588.45,441.47,593.25Z" transform="translate(-260.45 -238.31)"/><polygon class="cls-6" points="286.33 230.32 272.26 233.78 271.53 121.21 286.55 127.88 286.33 230.32"/><path class="cls-7" d="M411.31,315.13c1.58,6.66,6.21,10.6,14.82,10.6,9.58,0,13.25-4.58,13.25-10,0-5.66-2.62-9.17-14.15-11.89-11.07-2.65-15.86-6.09-15.86-13.33,0-6.59,5-12.75,16.24-12.75,11.52,0,16.38,6.74,17.06,12.83h-4.19c-1.2-5.38-4.87-9.25-13.1-9.25-7.56,0-11.67,3.37-11.67,9s3.44,7.66,13.09,10c14.74,3.51,16.91,9.17,16.91,15.19,0,7.37-5.61,13.75-17.73,13.75-13.09,0-17.88-7.31-18.86-14Z" transform="translate(-260.45 -238.31)"/><path class="cls-7" d="M461,311.26l-6.66,17.34h-4.12l19.23-50.15h4.79L494.3,328.6h-4.42l-6.81-17.34Zm20.73-3.58c-5.84-14.9-8.83-22.07-9.88-25.43h-.08c-1.27,3.79-4.64,12.68-9.35,25.43Z" transform="translate(-260.45 -238.31)"/><path class="cls-7" d="M543.16,328.6h-3.37c-.3-.58-.45-3.16-.52-8-1.87,3.44-6,8.6-16.91,8.6-15,0-22.75-11-22.75-25.22,0-15,8.23-26.22,23.57-26.22,11.3,0,18.78,5.66,20.43,14.9h-4c-2.25-7.09-7.41-11.32-16.54-11.32-13.1,0-19.08,9.75-19.08,22.43,0,11.46,5.76,21.85,18.56,21.85,13.09,0,16.76-8.17,16.76-19.27v-.58H522.36v-3.58h20.8Z" transform="translate(-260.45 -238.31)"/><path class="cls-7" d="M587.45,304H560.74V325H590l-.6,3.59H556.7V278.45h32.1V282H560.74v18.34h26.71Z" transform="translate(-260.45 -238.31)"/><path class="cls-8" d="M628.23,279.67c7,0,12.5,5.23,12.5,11.75s-5.46,11.82-12.57,11.82-12.65-5.16-12.65-11.82,5.61-11.75,12.65-11.75Zm-.15,2.36a9.39,9.39,0,1,0,.15,18.77,9.16,9.16,0,0,0,9.36-9.38,9.27,9.27,0,0,0-9.43-9.39Zm-1.87,15.47h-2.84V285.83a24.36,24.36,0,0,1,4.71-.43,7.24,7.24,0,0,1,4.27.93,3.17,3.17,0,0,1,1.2,2.51,3.06,3.06,0,0,1-2.55,2.79v.14c1.2.36,1.87,1.29,2.25,2.87a7.55,7.55,0,0,0,.89,2.86h-3.06a9,9,0,0,1-1-2.79c-.22-1.29-1-1.86-2.54-1.86h-1.35Zm.08-6.59h1.34c1.58,0,2.85-.5,2.85-1.72,0-1.07-.82-1.79-2.62-1.79a7.07,7.07,0,0,0-1.57.15Z" transform="translate(-260.45 -238.31)"/><polygon class="cls-2" points="394.87 384.5 336.31 385.02 419.46 343.97 471.26 344.32 394.87 384.5"/></svg>